<?xml version="1.0" encoding="utf-8"?>
<svg version="1.1" id="SVG" xmlns="http://www.w3.org/2000/svg" xmlns:xlink="http://www.w3.org/1999/xlink" x="0px" y="0px" viewBox="0 0 60 60" enable-background="new 0 0 60 60" xml:space="preserve">
<g>
	<g>
		<path fill="#000000" d="M31.597,38.383c-0.156,5.572,3.316,11.297,9.376,16.277c7.18-3.2,12.91-9.489,15.104-17.673			c0.064-0.238,0.115-0.476,0.172-0.714C48.504,38.876,40.084,39.7,31.597,38.383z"/>
	</g>
	<g>
		<path fill="#000000" d="M10.664,31.994c0.215-0.421,0.408-0.851,0.593-1.285c-2.781-1.781-5.358-3.812-7.719-6.046			c-1.019,5.028-0.559,10.05,1.102,14.589C7.206,37.226,9.237,34.794,10.664,31.994z"/>
	</g>
	<g>
		<path fill="#000000" d="M54.673,19.056c-2.577,0.632-5.033,1.408-7.333,2.332c-8.441,3.394-13.787,8.329-15.301,14.027			c8.573,1.328,17.076,0.317,24.809-2.577C57.363,28.025,56.554,23.29,54.673,19.056z"/>
	</g>
	<g>
		<path fill="#000000" d="M37.115,3.965c-0.044-0.012-0.086-0.026-0.129-0.038c-8.558-2.293-17.257-0.206-23.718,4.887			c2.881,7.113,3.58,14.227,1.645,20.596c1.39,0.8,2.828,1.535,4.311,2.203c0.029-0.112,0.051-0.224,0.081-0.336			C22.306,20.077,28.717,10.707,37.115,3.965z"/>
	</g>
	<g>
		<path fill="#000000" d="M28.619,37.841c-0.875-0.188-1.749-0.398-2.623-0.632c-1.578-0.423-3.114-0.922-4.617-1.476			c-1.279,6.786-1.079,13.559,0.371,19.97c0.415,0.133,0.835,0.258,1.26,0.372c5.018,1.344,10.083,1.179,14.718-0.211			C31.652,50.447,28.248,44.178,28.619,37.841z"/>
	</g>
	<g>
		<path fill="#000000" d="M13.84,32.265c-0.164,0.365-0.32,0.732-0.503,1.091c-1.769,3.472-4.32,6.384-7.474,8.73			c2.639,5.265,6.982,9.648,12.522,12.281c-1.179-6.383-1.186-13.071,0.155-19.766C16.923,33.896,15.355,33.116,13.84,32.265z"/>
	</g>
	<g>
		<path fill="#000000" d="M10.893,10.932c-2.843,2.842-5.082,6.351-6.447,10.373c2.364,2.394,4.971,4.571,7.819,6.46			C13.613,22.663,13.138,16.918,10.893,10.932z"/>
	</g>
	<g>
		<path fill="#000000" d="M22.202,32.052c-0.065,0.243-0.114,0.486-0.176,0.729c1.54,0.583,3.122,1.096,4.746,1.531			c0.77,0.206,1.54,0.389,2.311,0.557c2.162-8.618,11.379-15.256,24.19-18.538c-2.869-4.884-7.267-8.868-12.742-11.18			C31.858,11.573,25.206,20.843,22.202,32.052z"/>
	</g>
</g>
</svg>
